<svg width="178" height="166" viewBox="0 0 178 166" fill="none" xmlns="http://www.w3.org/2000/svg">
<rect x="0.5" y="0.5" width="177" height="165" rx="4.5" fill="#252525"/>
<rect x="0.5" y="0.5" width="177" height="165" rx="4.5" stroke="#6E6E6E"/>
<path d="M58.6029 50.336C57.5203 50.336 56.5496 50.1493 55.6909 49.776C54.8323 49.384 54.0483 48.8427 53.3389 48.152L54.9909 46.276C56.1109 47.452 57.3616 48.04 58.7429 48.04C59.5083 48.04 60.2176 47.788 60.8709 47.284C61.5243 46.7613 62.0469 45.9493 62.4389 44.848C62.8496 43.7467 63.0549 42.328 63.0549 40.592C62.4763 41.1147 61.8323 41.5533 61.1229 41.908C60.4136 42.2627 59.6483 42.44 58.8269 42.44C57.8376 42.44 56.8949 42.216 55.9989 41.768C55.1216 41.3013 54.4029 40.6293 53.8429 39.752C53.3016 38.856 53.0309 37.7547 53.0309 36.448C53.0309 35.272 53.2923 34.1987 53.8149 33.228C54.3563 32.2573 55.1029 31.492 56.0549 30.932C57.0069 30.3533 58.1083 30.064 59.3589 30.064C60.3296 30.064 61.1603 30.2133 61.8509 30.512C62.5416 30.8107 63.1203 31.2027 63.5869 31.688C64.0349 32.1547 64.4083 32.7053 64.7069 33.34C65.0243 33.956 65.2576 34.7773 65.4069 35.804C65.5563 36.812 65.6309 38.128 65.6309 39.752C65.6309 42.2347 65.3229 44.26 64.7069 45.828C64.0909 47.3773 63.2509 48.516 62.1869 49.244C61.1416 49.972 59.9469 50.336 58.6029 50.336ZM59.2469 40.368C59.9563 40.368 60.6376 40.1907 61.2909 39.836C61.9629 39.4813 62.5509 39.052 63.0549 38.548V37.708C63.0549 35.9347 62.7096 34.5907 62.0189 33.676C61.3469 32.7613 60.4323 32.304 59.2749 32.304C58.2109 32.304 57.3056 32.6773 56.5589 33.424C55.8309 34.152 55.4669 35.1227 55.4669 36.336C55.4669 37.176 55.6443 37.904 55.9989 38.52C56.3536 39.1173 56.8109 39.5747 57.3709 39.892C57.9496 40.2093 58.5749 40.368 59.2469 40.368ZM76.372 50.336C74.188 50.336 72.5267 49.4493 71.388 47.676C70.2493 45.884 69.68 43.3827 69.68 40.172C69.68 36.9427 70.2587 34.4507 71.416 32.696C72.592 30.9413 74.2627 30.064 76.428 30.064C78.612 30.064 80.2733 30.9507 81.412 32.724C82.5507 34.4973 83.12 36.9987 83.12 40.228C83.12 43.4573 82.532 45.9493 81.356 47.704C80.1987 49.4587 78.5373 50.336 76.372 50.336ZM76.4 48.04C77.24 48.04 77.9587 47.7973 78.556 47.312C79.172 46.808 79.6387 45.9867 79.956 44.848C80.292 43.7093 80.46 42.1787 80.46 40.256C80.46 37.68 80.096 35.72 79.368 34.376C78.6587 33.032 77.6693 32.36 76.4 32.36C75.56 32.36 74.832 32.612 74.216 33.116C73.6187 33.6013 73.152 34.4133 72.816 35.552C72.4987 36.672 72.34 38.2027 72.34 40.144C72.34 42.72 72.6947 44.68 73.404 46.024C74.132 47.368 75.1307 48.04 76.4 48.04ZM92.0411 51.12L90.3611 50.056L102.597 29.28L104.277 30.344L92.0411 51.12ZM90.6131 42.44C89.0637 42.44 87.8784 41.8987 87.0571 40.816C86.2544 39.7333 85.8531 38.2213 85.8531 36.28C85.8531 34.3387 86.2637 32.8453 87.0851 31.8C87.9251 30.736 89.1104 30.204 90.6411 30.204C92.1904 30.204 93.3757 30.736 94.1971 31.8C95.0184 32.8453 95.4291 34.3387 95.4291 36.28C95.4291 38.2027 95.0091 39.7147 94.1691 40.816C93.3477 41.8987 92.1624 42.44 90.6131 42.44ZM90.6411 40.564C91.4251 40.564 92.0317 40.2467 92.4611 39.612C92.8904 38.9773 93.1051 37.8667 93.1051 36.28C93.1051 34.8987 92.8904 33.8533 92.4611 33.144C92.0317 32.416 91.4157 32.052 90.6131 32.052C89.8664 32.052 89.2691 32.3693 88.8211 33.004C88.3917 33.62 88.1771 34.712 88.1771 36.28C88.1771 37.68 88.3917 38.744 88.8211 39.472C89.2504 40.2 89.8571 40.564 90.6411 40.564ZM104.109 50.168C102.56 50.168 101.374 49.6267 100.553 48.544C99.7504 47.4613 99.3491 45.9493 99.3491 44.008C99.3491 42.0667 99.7597 40.5733 100.581 39.528C101.421 38.464 102.606 37.932 104.137 37.932C105.686 37.932 106.872 38.464 107.693 39.528C108.514 40.5733 108.925 42.0667 108.925 44.008C108.925 45.9307 108.505 47.4427 107.665 48.544C106.844 49.6267 105.658 50.168 104.109 50.168ZM104.137 48.292C104.921 48.292 105.528 47.9747 105.957 47.34C106.386 46.7053 106.601 45.5947 106.601 44.008C106.601 42.6267 106.386 41.5813 105.957 40.872C105.528 40.144 104.912 39.78 104.109 39.78C103.362 39.78 102.765 40.0973 102.317 40.732C101.888 41.348 101.673 42.44 101.673 44.008C101.673 45.408 101.888 46.472 102.317 47.2C102.746 47.928 103.353 48.292 104.137 48.292ZM117.224 46.052V41.488H112.94V39.304H117.224V34.74H119.604V39.304H123.86V41.488H119.604V46.052H117.224Z" fill="#00F7FF"/>
<path d="M38.0652 94V86.608H35.4852V85.6H41.7852V86.608H39.2052V94H38.0652ZM44.4728 94.144C43.8808 94.144 43.3488 94.008 42.8768 93.736C42.4048 93.456 42.0328 93.072 41.7608 92.584C41.4968 92.088 41.3648 91.52 41.3648 90.88C41.3648 90.208 41.5008 89.628 41.7728 89.14C42.0448 88.652 42.4168 88.276 42.8888 88.012C43.3608 87.748 43.8888 87.616 44.4728 87.616C45.0568 87.616 45.5808 87.748 46.0448 88.012C46.5168 88.276 46.8888 88.652 47.1608 89.14C47.4408 89.62 47.5808 90.192 47.5808 90.856C47.5808 91.52 47.4448 92.1 47.1728 92.596C46.9008 93.084 46.5288 93.464 46.0568 93.736C45.5928 94.008 45.0648 94.144 44.4728 94.144ZM44.4728 93.184C45.1048 93.184 45.5968 92.972 45.9488 92.548C46.3008 92.116 46.4768 91.56 46.4768 90.88C46.4768 90.464 46.3888 90.084 46.2128 89.74C46.0368 89.388 45.7968 89.108 45.4928 88.9C45.1968 88.684 44.8568 88.576 44.4728 88.576C43.8408 88.576 43.3488 88.784 42.9968 89.2C42.6448 89.616 42.4688 90.168 42.4688 90.856C42.4688 91.272 42.5568 91.66 42.7328 92.02C42.9088 92.372 43.1448 92.656 43.4408 92.872C43.7448 93.08 44.0888 93.184 44.4728 93.184ZM49.0103 96.64V89.356C49.0103 89.084 48.9423 88.892 48.8063 88.78C48.6783 88.66 48.5103 88.6 48.3023 88.6L48.5303 87.76C49.2663 87.76 49.7263 88.052 49.9103 88.636C49.9903 88.516 50.1183 88.376 50.2943 88.216C50.4783 88.056 50.7023 87.916 50.9663 87.796C51.2383 87.676 51.5463 87.616 51.8903 87.616C52.3703 87.616 52.8183 87.744 53.2343 88C53.6583 88.248 53.9983 88.612 54.2543 89.092C54.5103 89.564 54.6383 90.14 54.6383 90.82C54.6383 91.484 54.5103 92.068 54.2543 92.572C53.9983 93.068 53.6623 93.456 53.2463 93.736C52.8383 94.008 52.3943 94.144 51.9143 94.144C51.5463 94.144 51.2023 94.072 50.8823 93.928C50.5623 93.776 50.2983 93.604 50.0903 93.412V96.64H49.0103ZM51.6983 93.184C52.2423 93.184 52.6823 92.972 53.0183 92.548C53.3623 92.116 53.5343 91.552 53.5343 90.856C53.5343 90.376 53.4463 89.964 53.2703 89.62C53.1023 89.276 52.8743 89.012 52.5863 88.828C52.3063 88.644 51.9943 88.552 51.6503 88.552C51.3063 88.552 50.9943 88.64 50.7143 88.816C50.4423 88.984 50.2343 89.168 50.0903 89.368V92.44C50.2983 92.656 50.5383 92.836 50.8103 92.98C51.0823 93.116 51.3783 93.184 51.6983 93.184ZM56.9096 94V93.04H58.6256V86.98L57.0176 88.192L56.4296 87.388L58.9136 85.6H59.7056V93.04H61.1336V94H56.9096ZM70.2826 94.144C69.5546 94.144 68.9106 93.972 68.3506 93.628C67.7906 93.276 67.3546 92.78 67.0426 92.14C66.7306 91.492 66.5746 90.724 66.5746 89.836C66.5746 88.98 66.7306 88.224 67.0426 87.568C67.3626 86.904 67.8106 86.388 68.3866 86.02C68.9706 85.644 69.6506 85.456 70.4266 85.456C70.8266 85.456 71.1906 85.496 71.5186 85.576C71.8466 85.648 72.1546 85.752 72.4426 85.888L72.0946 86.848C71.8466 86.728 71.5906 86.632 71.3266 86.56C71.0706 86.488 70.7666 86.452 70.4146 86.452C69.9026 86.452 69.4426 86.584 69.0346 86.848C68.6346 87.112 68.3186 87.492 68.0866 87.988C67.8546 88.484 67.7386 89.084 67.7386 89.788C67.7386 90.46 67.8506 91.048 68.0746 91.552C68.3066 92.056 68.6226 92.448 69.0226 92.728C69.4306 93.008 69.8946 93.148 70.4146 93.148C70.8066 93.148 71.1466 93.1 71.4346 93.004C71.7226 92.908 72.0026 92.784 72.2746 92.632L72.6226 93.58C72.3266 93.74 71.9866 93.876 71.6026 93.988C71.2266 94.092 70.7866 94.144 70.2826 94.144ZM75.7212 94.144C75.3532 94.144 75.0212 94.076 74.7252 93.94C74.4292 93.796 74.1932 93.568 74.0172 93.256C73.8492 92.944 73.7652 92.54 73.7652 92.044V85.12H74.8452V91.936C74.8452 92.368 74.9332 92.688 75.1092 92.896C75.2932 93.104 75.5452 93.208 75.8652 93.208C76.0172 93.208 76.1652 93.192 76.3092 93.16C76.4612 93.12 76.5892 93.076 76.6932 93.028L76.9572 93.904C76.8132 93.968 76.6332 94.024 76.4172 94.072C76.2092 94.12 75.9772 94.144 75.7212 94.144ZM80.1859 94.144C79.6659 94.144 79.1939 94.012 78.7699 93.748C78.3459 93.484 78.0059 93.112 77.7499 92.632C77.5019 92.144 77.3779 91.572 77.3779 90.916C77.3779 90.292 77.5019 89.732 77.7499 89.236C78.0059 88.74 78.3539 88.348 78.7939 88.06C79.2419 87.764 79.7539 87.616 80.3299 87.616C80.6899 87.616 81.0139 87.68 81.3019 87.808C81.5979 87.928 81.8539 88.08 82.0699 88.264V87.76H83.0539V92.488C83.0539 92.792 83.1259 92.992 83.2699 93.088C83.4219 93.176 83.5859 93.22 83.7619 93.22L83.5339 94.06C82.7659 94.06 82.3019 93.748 82.1419 93.124C81.9579 93.38 81.7059 93.616 81.3859 93.832C81.0739 94.04 80.6739 94.144 80.1859 94.144ZM80.4259 93.184C80.7299 93.184 81.0179 93.112 81.2899 92.968C81.5619 92.816 81.7899 92.628 81.9739 92.404V89.056C81.7579 88.904 81.5179 88.784 81.2539 88.696C80.9979 88.6 80.7259 88.552 80.4379 88.552C80.0539 88.552 79.7139 88.652 79.4179 88.852C79.1299 89.044 78.9019 89.316 78.7339 89.668C78.5659 90.012 78.4819 90.416 78.4819 90.88C78.4819 91.328 78.5659 91.728 78.7339 92.08C78.9019 92.424 79.1339 92.696 79.4299 92.896C79.7259 93.088 80.0579 93.184 80.4259 93.184ZM86.8841 94.144C86.4121 94.144 85.9841 94.084 85.6001 93.964C85.2241 93.844 84.9121 93.688 84.6641 93.496L85.1201 92.596C85.3281 92.772 85.5881 92.92 85.9001 93.04C86.2201 93.152 86.5601 93.208 86.9201 93.208C87.3681 93.208 87.7041 93.136 87.9281 92.992C88.1601 92.84 88.2761 92.648 88.2761 92.416C88.2761 92.248 88.2321 92.1 88.1441 91.972C88.0641 91.844 87.9121 91.72 87.6881 91.6C87.4641 91.472 87.1401 91.336 86.7161 91.192C86.1321 90.992 85.6921 90.756 85.3961 90.484C85.1081 90.204 84.9641 89.82 84.9641 89.332C84.9641 88.852 85.1721 88.448 85.5881 88.12C86.0121 87.784 86.5961 87.616 87.3401 87.616C87.7401 87.616 88.0961 87.66 88.4081 87.748C88.7201 87.828 89.0001 87.932 89.2481 88.06L88.9481 88.948C88.7321 88.82 88.4841 88.716 88.2041 88.636C87.9321 88.556 87.6281 88.516 87.2921 88.516C86.8761 88.516 86.5601 88.6 86.3441 88.768C86.1281 88.936 86.0201 89.12 86.0201 89.32C86.0201 89.512 86.1041 89.676 86.2721 89.812C86.4401 89.948 86.7681 90.096 87.2561 90.256C88.0481 90.52 88.6001 90.812 88.9121 91.132C89.2241 91.452 89.3801 91.852 89.3801 92.332C89.3801 92.892 89.1521 93.336 88.6961 93.664C88.2481 93.984 87.6441 94.144 86.8841 94.144ZM92.4974 94.144C92.0254 94.144 91.5974 94.084 91.2134 93.964C90.8374 93.844 90.5254 93.688 90.2774 93.496L90.7334 92.596C90.9414 92.772 91.2014 92.92 91.5134 93.04C91.8334 93.152 92.1734 93.208 92.5334 93.208C92.9814 93.208 93.3174 93.136 93.5414 92.992C93.7734 92.84 93.8894 92.648 93.8894 92.416C93.8894 92.248 93.8454 92.1 93.7574 91.972C93.6774 91.844 93.5254 91.72 93.3014 91.6C93.0774 91.472 92.7534 91.336 92.3294 91.192C91.7454 90.992 91.3054 90.756 91.0094 90.484C90.7214 90.204 90.5774 89.82 90.5774 89.332C90.5774 88.852 90.7854 88.448 91.2014 88.12C91.6254 87.784 92.2094 87.616 92.9534 87.616C93.3534 87.616 93.7094 87.66 94.0214 87.748C94.3334 87.828 94.6134 87.932 94.8614 88.06L94.5614 88.948C94.3454 88.82 94.0974 88.716 93.8174 88.636C93.5454 88.556 93.2414 88.516 92.9054 88.516C92.4894 88.516 92.1734 88.6 91.9574 88.768C91.7414 88.936 91.6334 89.12 91.6334 89.32C91.6334 89.512 91.7174 89.676 91.8854 89.812C92.0534 89.948 92.3814 90.096 92.8694 90.256C93.6614 90.52 94.2134 90.812 94.5254 91.132C94.8374 91.452 94.9934 91.852 94.9934 92.332C94.9934 92.892 94.7654 93.336 94.3094 93.664C93.8614 93.984 93.2574 94.144 92.4974 94.144ZM96.4307 94V87.76H97.5107V94H96.4307ZM96.9707 86.692C96.7627 86.692 96.5827 86.616 96.4307 86.464C96.2867 86.312 96.2147 86.136 96.2147 85.936C96.2147 85.704 96.2827 85.52 96.4187 85.384C96.5547 85.248 96.7387 85.18 96.9707 85.18C97.1787 85.18 97.3547 85.256 97.4987 85.408C97.6507 85.552 97.7267 85.728 97.7267 85.936C97.7267 86.16 97.6587 86.344 97.5227 86.488C97.3867 86.624 97.2027 86.692 96.9707 86.692ZM99.5507 94V88.924H98.5907V87.988H99.5507V87.256C99.5507 86.552 99.7467 85.996 100.139 85.588C100.531 85.18 101.043 84.976 101.675 84.976C102.003 84.976 102.291 85.016 102.539 85.096C102.787 85.168 103.023 85.26 103.247 85.372L102.923 86.284C102.755 86.196 102.575 86.116 102.383 86.044C102.191 85.972 101.979 85.936 101.747 85.936C101.411 85.936 101.139 86.044 100.931 86.26C100.731 86.468 100.631 86.776 100.631 87.184V87.988H102.479V88.924H100.631V94H99.5507ZM103.603 94V87.76H104.683V94H103.603ZM104.143 86.692C103.935 86.692 103.755 86.616 103.603 86.464C103.459 86.312 103.387 86.136 103.387 85.936C103.387 85.704 103.455 85.52 103.591 85.384C103.727 85.248 103.911 85.18 104.143 85.18C104.351 85.18 104.527 85.256 104.671 85.408C104.823 85.552 104.899 85.728 104.899 85.936C104.899 86.16 104.831 86.344 104.695 86.488C104.559 86.624 104.375 86.692 104.143 86.692ZM109.123 94.144C108.531 94.144 108.011 94.008 107.563 93.736C107.123 93.456 106.783 93.072 106.543 92.584C106.303 92.088 106.183 91.52 106.183 90.88C106.183 90.28 106.303 89.732 106.543 89.236C106.791 88.74 107.143 88.348 107.599 88.06C108.055 87.764 108.591 87.616 109.207 87.616C109.559 87.616 109.867 87.648 110.131 87.712C110.403 87.776 110.663 87.868 110.911 87.988L110.587 88.9C110.363 88.788 110.147 88.708 109.939 88.66C109.739 88.604 109.515 88.576 109.267 88.576C108.707 88.576 108.235 88.78 107.851 89.188C107.475 89.588 107.287 90.144 107.287 90.856C107.287 91.288 107.367 91.68 107.527 92.032C107.687 92.384 107.907 92.664 108.187 92.872C108.475 93.08 108.811 93.184 109.195 93.184C109.499 93.184 109.759 93.152 109.975 93.088C110.191 93.016 110.423 92.916 110.671 92.788L111.007 93.7C110.759 93.836 110.479 93.944 110.167 94.024C109.863 94.104 109.515 94.144 109.123 94.144ZM114.534 94.144C114.014 94.144 113.542 94.012 113.118 93.748C112.694 93.484 112.354 93.112 112.098 92.632C111.85 92.144 111.726 91.572 111.726 90.916C111.726 90.292 111.85 89.732 112.098 89.236C112.354 88.74 112.702 88.348 113.142 88.06C113.59 87.764 114.102 87.616 114.678 87.616C115.038 87.616 115.362 87.68 115.65 87.808C115.946 87.928 116.202 88.08 116.418 88.264V87.76H117.402V92.488C117.402 92.792 117.474 92.992 117.618 93.088C117.77 93.176 117.934 93.22 118.11 93.22L117.882 94.06C117.114 94.06 116.65 93.748 116.49 93.124C116.306 93.38 116.054 93.616 115.734 93.832C115.422 94.04 115.022 94.144 114.534 94.144ZM114.774 93.184C115.078 93.184 115.366 93.112 115.638 92.968C115.91 92.816 116.138 92.628 116.322 92.404V89.056C116.106 88.904 115.866 88.784 115.602 88.696C115.346 88.6 115.074 88.552 114.786 88.552C114.402 88.552 114.062 88.652 113.766 88.852C113.478 89.044 113.25 89.316 113.082 89.668C112.914 90.012 112.83 90.416 112.83 90.88C112.83 91.328 112.914 91.728 113.082 92.08C113.25 92.424 113.482 92.696 113.778 92.896C114.074 93.088 114.406 93.184 114.774 93.184ZM121.736 94.144C121.136 94.144 120.66 93.948 120.308 93.556C119.964 93.156 119.792 92.588 119.792 91.852V88.924H118.712V87.988H119.816L120.044 86.02H120.872V87.988H122.6V88.924H120.872V91.936C120.872 92.4 120.968 92.724 121.16 92.908C121.36 93.092 121.596 93.184 121.868 93.184C122.068 93.184 122.256 93.152 122.432 93.088C122.616 93.024 122.784 92.948 122.936 92.86L123.236 93.724C123.076 93.82 122.86 93.912 122.588 94C122.316 94.096 122.032 94.144 121.736 94.144ZM124.321 94V87.76H125.401V94H124.321ZM124.861 86.692C124.653 86.692 124.473 86.616 124.321 86.464C124.177 86.312 124.105 86.136 124.105 85.936C124.105 85.704 124.173 85.52 124.309 85.384C124.445 85.248 124.629 85.18 124.861 85.18C125.069 85.18 125.245 85.256 125.389 85.408C125.541 85.552 125.617 85.728 125.617 85.936C125.617 86.16 125.549 86.344 125.413 86.488C125.277 86.624 125.093 86.692 124.861 86.692ZM129.949 94.144C129.357 94.144 128.825 94.008 128.353 93.736C127.881 93.456 127.509 93.072 127.237 92.584C126.973 92.088 126.841 91.52 126.841 90.88C126.841 90.208 126.977 89.628 127.249 89.14C127.521 88.652 127.893 88.276 128.365 88.012C128.837 87.748 129.365 87.616 129.949 87.616C130.533 87.616 131.057 87.748 131.521 88.012C131.993 88.276 132.365 88.652 132.637 89.14C132.917 89.62 133.057 90.192 133.057 90.856C133.057 91.52 132.921 92.1 132.649 92.596C132.377 93.084 132.005 93.464 131.533 93.736C131.069 94.008 130.541 94.144 129.949 94.144ZM129.949 93.184C130.581 93.184 131.073 92.972 131.425 92.548C131.777 92.116 131.953 91.56 131.953 90.88C131.953 90.464 131.865 90.084 131.689 89.74C131.513 89.388 131.273 89.108 130.969 88.9C130.673 88.684 130.333 88.576 129.949 88.576C129.317 88.576 128.825 88.784 128.473 89.2C128.121 89.616 127.945 90.168 127.945 90.856C127.945 91.272 128.033 91.66 128.209 92.02C128.385 92.372 128.621 92.656 128.917 92.872C129.221 93.08 129.565 93.184 129.949 93.184ZM134.493 94V87.76H135.537V88.804C135.761 88.468 136.045 88.188 136.389 87.964C136.741 87.732 137.157 87.616 137.637 87.616C138.341 87.616 138.865 87.828 139.209 88.252C139.561 88.676 139.737 89.236 139.737 89.932V94H138.657V90.052C138.657 89.604 138.549 89.244 138.333 88.972C138.125 88.7 137.833 88.564 137.457 88.564C137.089 88.564 136.741 88.696 136.413 88.96C136.085 89.216 135.805 89.52 135.573 89.872V94H134.493Z" fill="white"/>
<path d="M69.7915 123.12L68.8555 120.72H64.9675L64.0315 123.096L63.0595 122.7L66.3475 114.6H67.5955L70.8355 122.7L69.7915 123.12ZM65.3275 119.76H68.4835L66.9115 115.728L65.3275 119.76ZM74.4351 123.144C73.8431 123.144 73.3231 123.008 72.8751 122.736C72.4351 122.456 72.0951 122.072 71.8551 121.584C71.6151 121.088 71.4951 120.52 71.4951 119.88C71.4951 119.28 71.6151 118.732 71.8551 118.236C72.1031 117.74 72.4551 117.348 72.9111 117.06C73.3671 116.764 73.9031 116.616 74.5191 116.616C74.8711 116.616 75.1791 116.648 75.4431 116.712C75.7151 116.776 75.9751 116.868 76.2231 116.988L75.8991 117.9C75.6751 117.788 75.4591 117.708 75.2511 117.66C75.0511 117.604 74.8271 117.576 74.5791 117.576C74.0191 117.576 73.5471 117.78 73.1631 118.188C72.7871 118.588 72.5991 119.144 72.5991 119.856C72.5991 120.288 72.6791 120.68 72.8391 121.032C72.9991 121.384 73.2191 121.664 73.4991 121.872C73.7871 122.08 74.1231 122.184 74.5071 122.184C74.8111 122.184 75.0711 122.152 75.2871 122.088C75.5031 122.016 75.7351 121.916 75.9831 121.788L76.3191 122.7C76.0711 122.836 75.7911 122.944 75.4791 123.024C75.1751 123.104 74.8271 123.144 74.4351 123.144ZM79.978 123.144C79.386 123.144 78.866 123.008 78.418 122.736C77.978 122.456 77.638 122.072 77.398 121.584C77.158 121.088 77.038 120.52 77.038 119.88C77.038 119.28 77.158 118.732 77.398 118.236C77.646 117.74 77.998 117.348 78.454 117.06C78.91 116.764 79.446 116.616 80.062 116.616C80.414 116.616 80.722 116.648 80.986 116.712C81.258 116.776 81.518 116.868 81.766 116.988L81.442 117.9C81.218 117.788 81.002 117.708 80.794 117.66C80.594 117.604 80.37 117.576 80.122 117.576C79.562 117.576 79.09 117.78 78.706 118.188C78.33 118.588 78.142 119.144 78.142 119.856C78.142 120.288 78.222 120.68 78.382 121.032C78.542 121.384 78.762 121.664 79.042 121.872C79.33 122.08 79.666 122.184 80.05 122.184C80.354 122.184 80.614 122.152 80.83 122.088C81.046 122.016 81.278 121.916 81.526 121.788L81.862 122.7C81.614 122.836 81.334 122.944 81.022 123.024C80.718 123.104 80.37 123.144 79.978 123.144ZM85.1582 123.144C84.7982 123.144 84.4582 123.068 84.1382 122.916C83.8182 122.764 83.5582 122.52 83.3582 122.184C83.1582 121.84 83.0582 121.384 83.0582 120.816V116.76H84.1382V120.672C84.1382 121.16 84.2422 121.536 84.4502 121.8C84.6582 122.056 84.9622 122.184 85.3622 122.184C85.6902 122.184 86.0062 122.12 86.3102 121.992C86.6222 121.856 86.8982 121.676 87.1382 121.452V116.76H88.2182V121.38C88.2182 121.724 88.2902 121.952 88.4342 122.064C88.5862 122.168 88.7502 122.22 88.9262 122.22L88.6982 123.06C87.9542 123.06 87.4942 122.764 87.3182 122.172C87.0382 122.46 86.7142 122.696 86.3462 122.88C85.9782 123.056 85.5822 123.144 85.1582 123.144ZM90.3604 123V116.76H91.4044V118.116C91.5084 117.852 91.6484 117.608 91.8244 117.384C92.0004 117.152 92.2204 116.968 92.4844 116.832C92.7484 116.688 93.0564 116.616 93.4084 116.616C93.5284 116.616 93.6484 116.624 93.7684 116.64C93.8884 116.648 93.9884 116.664 94.0684 116.688L93.7444 117.804C93.5924 117.74 93.4124 117.708 93.2044 117.708C92.9084 117.708 92.6244 117.792 92.3524 117.96C92.0884 118.128 91.8684 118.388 91.6924 118.74C91.5244 119.092 91.4404 119.54 91.4404 120.084V123H90.3604ZM97.1781 123.144C96.6581 123.144 96.1861 123.012 95.7621 122.748C95.3381 122.484 94.9981 122.112 94.7421 121.632C94.4941 121.144 94.3701 120.572 94.3701 119.916C94.3701 119.292 94.4941 118.732 94.7421 118.236C94.9981 117.74 95.3461 117.348 95.7861 117.06C96.2341 116.764 96.7461 116.616 97.3221 116.616C97.6821 116.616 98.0061 116.68 98.2941 116.808C98.5901 116.928 98.8461 117.08 99.0621 117.264V116.76H100.046V121.488C100.046 121.792 100.118 121.992 100.262 122.088C100.414 122.176 100.578 122.22 100.754 122.22L100.526 123.06C99.7581 123.06 99.2941 122.748 99.1341 122.124C98.9501 122.38 98.6981 122.616 98.3781 122.832C98.0661 123.04 97.6661 123.144 97.1781 123.144ZM97.4181 122.184C97.7221 122.184 98.0101 122.112 98.2821 121.968C98.5541 121.816 98.7821 121.628 98.9661 121.404V118.056C98.7501 117.904 98.5101 117.784 98.2461 117.696C97.9901 117.6 97.7181 117.552 97.4301 117.552C97.0461 117.552 96.7061 117.652 96.4101 117.852C96.1221 118.044 95.8941 118.316 95.7261 118.668C95.5581 119.012 95.4741 119.416 95.4741 119.88C95.4741 120.328 95.5581 120.728 95.7261 121.08C95.8941 121.424 96.1261 121.696 96.4221 121.896C96.7181 122.088 97.0501 122.184 97.4181 122.184ZM104.599 123.144C104.007 123.144 103.487 123.008 103.039 122.736C102.599 122.456 102.259 122.072 102.019 121.584C101.779 121.088 101.659 120.52 101.659 119.88C101.659 119.28 101.779 118.732 102.019 118.236C102.267 117.74 102.619 117.348 103.075 117.06C103.531 116.764 104.067 116.616 104.683 116.616C105.035 116.616 105.343 116.648 105.607 116.712C105.879 116.776 106.139 116.868 106.387 116.988L106.063 117.9C105.839 117.788 105.623 117.708 105.415 117.66C105.215 117.604 104.991 117.576 104.743 117.576C104.183 117.576 103.711 117.78 103.327 118.188C102.951 118.588 102.763 119.144 102.763 119.856C102.763 120.288 102.843 120.68 103.003 121.032C103.163 121.384 103.383 121.664 103.663 121.872C103.951 122.08 104.287 122.184 104.671 122.184C104.975 122.184 105.235 122.152 105.451 122.088C105.667 122.016 105.899 121.916 106.147 121.788L106.483 122.7C106.235 122.836 105.955 122.944 105.643 123.024C105.339 123.104 104.991 123.144 104.599 123.144ZM107.895 125.784C107.655 125.784 107.443 125.76 107.259 125.712C107.083 125.664 106.943 125.608 106.839 125.544L107.079 124.644C107.175 124.7 107.295 124.748 107.439 124.788C107.583 124.828 107.743 124.848 107.919 124.848C108.255 124.848 108.555 124.74 108.819 124.524C109.083 124.308 109.335 123.884 109.575 123.252L109.851 122.532H109.275L106.839 117.048L107.799 116.616L110.127 121.812L111.939 116.664L112.935 117.048L110.643 123.312C110.411 123.952 110.159 124.452 109.887 124.812C109.615 125.172 109.315 125.424 108.987 125.568C108.659 125.712 108.295 125.784 107.895 125.784Z" fill="white"/>
</svg>
